<?xml version="1.0" standalone="no"?>
<!DOCTYPE svg PUBLIC "-//W3C//DTD SVG 20010904//EN"
 "http://www.w3.org/TR/2001/REC-SVG-20010904/DTD/svg10.dtd">
<svg version="1.0" xmlns="http://www.w3.org/2000/svg"
 width="879.000000pt" height="879.000000pt" viewBox="0 0 879.000000 879.000000"
 preserveAspectRatio="xMidYMid meet">
<metadata>
Created by potrace 1.14, written by Peter Selinger 2001-2017
</metadata>
<g transform="translate(0.000000,879.000000) scale(0.100000,-0.100000)"
fill="#000000" stroke="none">
<path d="M4149 8776 c-2 -2 -49 -7 -104 -11 -154 -12 -193 -16 -275 -30 -14
-2 -43 -7 -65 -10 -22 -3 -62 -10 -90 -15 -27 -5 -63 -12 -80 -15 -123 -21
-333 -76 -515 -135 -358 -117 -714 -290 -1041 -506 -116 -77 -306 -216 -368
-269 -337 -290 -545 -513 -775 -828 -175 -241 -363 -570 -461 -809 -15 -35
-33 -77 -41 -95 -98 -215 -238 -720 -273 -988 -6 -44 -13 -98 -16 -120 -24
-176 -30 -287 -30 -550 0 -216 10 -458 20 -475 1 -3 6 -34 9 -70 9 -88 23
-171 53 -320 14 -69 26 -132 28 -141 2 -9 17 -68 34 -132 138 -513 371 -1002
677 -1424 306 -421 679 -783 1106 -1073 64 -44 121 -80 127 -80 6 0 11 -4 11
-10 0 -5 4 -10 8 -10 5 0 47 -23 93 -50 311 -187 736 -363 1114 -460 127 -33
194 -47 350 -76 43 -7 152 -24 195 -29 25 -3 61 -7 80 -10 205 -26 799 -27
935 -1 11 2 51 7 89 11 69 7 97 11 146 20 14 3 43 8 65 11 22 3 72 12 110 21
39 8 79 16 90 19 573 119 1261 442 1715 803 24 20 51 41 60 48 180 138 436
388 612 597 135 162 119 141 209 266 479 666 749 1405 817 2235 14 177 6 688
-12 805 -3 14 -7 48 -10 75 -3 28 -8 59 -10 70 -2 11 -7 40 -10 65 -7 51 -10
67 -37 205 -119 608 -417 1262 -807 1769 -168 220 -402 471 -577 621 -38 33
-75 65 -81 70 -6 6 -30 26 -54 45 -24 19 -48 40 -54 45 -6 6 -36 28 -66 50
-30 22 -57 42 -60 45 -23 29 -416 278 -522 331 -239 121 -315 156 -465 214
-106 42 -311 114 -343 120 -8 2 -62 16 -120 33 -58 16 -118 32 -135 36 -16 3
-82 16 -145 30 -63 13 -137 27 -165 30 -44 6 -69 10 -135 21 -8 2 -51 6 -95
10 -44 4 -91 9 -105 12 -34 5 -606 14 -611 9z"/>
</g>
</svg>
